<?xml version="1.0" standalone="no"?>
<!DOCTYPE svg PUBLIC "-//W3C//DTD SVG 20010904//EN"
 "http://www.w3.org/TR/2001/REC-SVG-20010904/DTD/svg10.dtd">
<svg version="1.0" xmlns="http://www.w3.org/2000/svg"
 width="99.000000pt" height="99.000000pt" viewBox="0 0 99.000000 99.000000"
 preserveAspectRatio="xMidYMid meet">
<metadata>
Created by potrace 1.14, written by Peter Selinger 2001-2017
</metadata>
<g transform="translate(0.000000,99.000000) scale(0.100000,-0.100000)"
fill="#000000" stroke="none">
<path d="M373 969 c-18 -5 -33 -12 -33 -15 0 -3 9 -2 21 1 11 4 42 10 67 15
41 7 43 8 12 8 -19 0 -50 -4 -67 -9z"/>
<path d="M508 973 c6 -2 18 -2 25 0 6 3 1 5 -13 5 -14 0 -19 -2 -12 -5z"/>
<path d="M598 963 c7 -3 16 -2 19 1 4 3 -2 6 -13 5 -11 0 -14 -3 -6 -6z"/>
<path d="M265 924 c-28 -14 -59 -36 -70 -47 l-20 -21 20 16 c11 9 44 28 73 43
28 15 52 29 52 31 0 6 -3 5 -55 -22z"/>
<path d="M816 847 c42 -39 80 -85 93 -112 24 -52 35 -60 19 -14 -12 34 -104
138 -152 171 -17 11 1 -9 40 -45z"/>
<path d="M144 838 l-19 -23 23 19 c12 11 22 21 22 23 0 8 -8 2 -26 -19z"/>
<path d="M395 821 c-30 -7 -30 -7 51 -66 l81 -60 53 -160 c29 -88 61 -179 71
-202 18 -42 19 -43 67 -43 54 0 66 9 98 75 30 63 27 204 -6 270 -36 73 -117
149 -185 174 -57 21 -163 27 -230 12z"/>
<path d="M108 793 c-19 -23 -31 -43 -24 -43 2 0 14 14 26 30 23 33 22 40 -2
13z"/>
<path d="M60 712 c-21 -42 -21 -42 -16 -42 6 0 37 62 33 67 -2 1 -10 -9 -17
-25z"/>
<path d="M192 646 c-20 -40 -26 -70 -30 -136 -5 -106 18 -173 82 -246 l44 -49
70 142 70 142 -33 91 c-18 50 -35 93 -37 95 -1 1 -34 5 -71 7 l-69 4 -26 -50z"/>
<path d="M31 644 c0 -11 3 -14 6 -6 3 7 2 16 -1 19 -3 4 -6 -2 -5 -13z"/>
<path d="M13 545 c0 -22 2 -30 4 -17 2 12 2 30 0 40 -3 9 -5 -1 -4 -23z"/>
<path d="M972 560 c0 -14 2 -19 5 -12 2 6 2 18 0 25 -3 6 -5 1 -5 -13z"/>
<path d="M12 450 c1 -23 4 -36 8 -30 6 10 1 70 -6 70 -2 0 -3 -18 -2 -40z"/>
<path d="M973 445 c0 -22 2 -30 4 -17 2 12 2 30 0 40 -3 9 -5 -1 -4 -23z"/>
<path d="M21 384 c0 -11 3 -14 6 -6 3 7 2 16 -1 19 -3 4 -6 -2 -5 -13z"/>
<path d="M941 324 c-6 -15 -9 -29 -7 -32 3 -2 10 8 16 23 6 15 9 29 7 31 -2 2
-9 -8 -16 -22z"/>
<path d="M60 271 c0 -6 4 -13 10 -16 6 -3 7 1 4 9 -7 18 -14 21 -14 7z"/>
<path d="M470 220 c-16 -33 -30 -62 -30 -66 0 -10 142 2 174 15 l28 11 -65 50
c-37 28 -68 50 -71 50 -3 0 -19 -27 -36 -60z"/>
<path d="M98 214 c35 -51 138 -141 174 -153 30 -10 31 -9 14 4 -11 8 -26 15
-34 15 -8 0 -51 37 -95 83 -45 45 -72 68 -59 51z"/>
<path d="M889 223 c-13 -16 -12 -17 4 -4 16 13 21 21 13 21 -2 0 -10 -8 -17
-17z"/>
<path d="M784 115 c-22 -19 -36 -35 -33 -35 4 0 24 16 45 35 22 19 36 35 33
35 -4 0 -24 -16 -45 -35z"/>
<path d="M675 50 c-3 -6 1 -7 9 -4 18 7 21 14 7 14 -6 0 -13 -4 -16 -10z"/>
<path d="M390 20 c8 -5 26 -10 39 -10 32 0 24 6 -19 14 -25 4 -31 3 -20 -4z"/>
<path d="M548 13 c6 -2 18 -2 25 0 6 3 1 5 -13 5 -14 0 -19 -2 -12 -5z"/>
</g>
</svg>
